HIERARCHY
ROOT hip
{
  OFFSET 0 0 0
  CHANNELS 6 Xposition Yposition Zposition Zrotation Yrotation Xrotation
  JOINT abdomen
  {
    OFFSET 0 20.6881 -0.73152
    CHANNELS 3 Zrotation Xrotation Yrotation
    JOINT chest
    {
      OFFSET 0 11.7043 -0.48768
      CHANNELS 3 Zrotation Xrotation Yrotation
      JOINT neck
      {
        OFFSET 0 22.1894 -2.19456
        CHANNELS 3 Zrotation Xrotation Yrotation
        JOINT head
        {
          OFFSET -0.24384 7.07133 1.2192
          CHANNELS 3 Zrotation Xrotation Yrotation
          JOINT leftEye
          {
            OFFSET 4.14528 8.04674 8.04672
            CHANNELS 3 Zrotation Xrotation Yrotation
            End Site
            {
              OFFSET 1 0 0
            }
          }
          JOINT rightEye
          {
            OFFSET -3.6576 8.04674 8.04672
            CHANNELS 3 Zrotation Xrotation Yrotation
            End Site
            {
              OFFSET 1 0 0
            }
          }
        }
      }
      JOINT rCollar
      {
        OFFSET -2.68224 19.2634 -4.8768
        CHANNELS 3 Zrotation Xrotation Yrotation
        JOINT rShldr
        {
          OFFSET -8.77824 -1.95073 1.46304
          CHANNELS 3 Zrotation Xrotation Yrotation
          JOINT rForeArm
          {
            OFFSET -28.1742 -1.7115 0.48768
            CHANNELS 3 Zrotation Xrotation Yrotation
            JOINT rHand
            {
              OFFSET -22.5879 0.773209 7.07136
              CHANNELS 3 Zrotation Xrotation Yrotation
              JOINT rThumb1
              {
                OFFSET -1.2192 -0.487915 3.41376
                CHANNELS 3 Zrotation Xrotation Yrotation
                JOINT rThumb2
                {
                  OFFSET -3.37035 -0.52449 3.41376
                  CHANNELS 3 Zrotation Xrotation Yrotation
                  End Site
                  {
                    OFFSET -1.78271 -1.18214 1.43049
                  }
                }
              }
              JOINT rIndex1
              {
                OFFSET -7.75947 0.938293 5.60832
                CHANNELS 3 Zrotation Xrotation Yrotation
                JOINT rIndex2
                {
                  OFFSET -2.54057 -0.884171 1.56538
                  CHANNELS 3 Zrotation Xrotation Yrotation
                  End Site
                  {
                    OFFSET -1.62519 -0.234802 1.16502
                  }
                }
              }
              JOINT rMid1
              {
                OFFSET -8.24714 1.18213 3.41376
                CHANNELS 3 Zrotation Xrotation Yrotation
                JOINT rMid2
                {
                  OFFSET -3.10165 -0.590103 1.0647
                  CHANNELS 3 Zrotation Xrotation Yrotation
                  End Site
                  {
                    OFFSET -2.48547 -0.328903 0.83742
                  }
                }
              }
              JOINT rRing1
              {
                OFFSET -8.82822 0.546677 1.51678
                CHANNELS 3 Zrotation Xrotation Yrotation
                JOINT rRing2
                {
                  OFFSET -2.60934 -0.819778 -0.0198488
                  CHANNELS 3 Zrotation Xrotation Yrotation
                  End Site
                  {
                    OFFSET -2.33842 -0.294052 0.168128
                  }
                }
              }
              JOINT rPinky1
              {
                OFFSET -8.27202 -0.0477905 -0.4584
                CHANNELS 3 Zrotation Xrotation Yrotation
                JOINT rPinky2
                {
                  OFFSET -1.82734 -0.647385 -0.700984
                  CHANNELS 3 Zrotation Xrotation Yrotation
                  End Site
                  {
                    OFFSET -1.69225 -0.51767 -0.607171
                  }
                }
              }
            }
          }
        }
      }
      JOINT lCollar
      {
        OFFSET 2.68224 19.2634 -4.8768
        CHANNELS 3 Zrotation Xrotation Yrotation
        JOINT lShldr
        {
          OFFSET 8.77824 -1.95073 1.46304
          CHANNELS 3 Zrotation Xrotation Yrotation
          JOINT lForeArm
          {
            OFFSET 28.1742 -1.7115 0.48768
            CHANNELS 3 Zrotation Xrotation Yrotation
            JOINT lHand
            {
              OFFSET 22.5879 0.773209 7.07136
              CHANNELS 3 Zrotation Xrotation Yrotation
              JOINT lThumb1
              {
                OFFSET 1.2192 -0.487915 3.41376
                CHANNELS 3 Zrotation Xrotation Yrotation
                JOINT lThumb2
                {
                  OFFSET 3.37035 -0.52449 3.41376
                  CHANNELS 3 Zrotation Xrotation Yrotation
                  End Site
                  {
                    OFFSET 1.78271 -1.18214 1.43049
                  }
                }
              }
              JOINT lIndex1
              {
                OFFSET 7.75947 0.938293 5.60832
                CHANNELS 3 Zrotation Xrotation Yrotation
                JOINT lIndex2
                {
                  OFFSET 2.54057 -0.884171 1.56538
                  CHANNELS 3 Zrotation Xrotation Yrotation
                  End Site
                  {
                    OFFSET 1.62519 -0.234802 1.16502
                  }
                }
              }
              JOINT lMid1
              {
                OFFSET 8.24714 1.18213 3.41376
                CHANNELS 3 Zrotation Xrotation Yrotation
                JOINT lMid2
                {
                  OFFSET 3.10165 -0.590103 1.0647
                  CHANNELS 3 Zrotation Xrotation Yrotation
                  End Site
                  {
                    OFFSET 2.48547 -0.328903 0.83742
                  }
                }
              }
              JOINT lRing1
              {
                OFFSET 8.82822 0.546677 1.51678
                CHANNELS 3 Zrotation Xrotation Yrotation
                JOINT lRing2
                {
                  OFFSET 2.60934 -0.819778 -0.0198488
                  CHANNELS 3 Zrotation Xrotation Yrotation
                  End Site
                  {
                    OFFSET 2.33842 -0.294052 0.168128
                  }
                }
              }
              JOINT lPinky1
              {
                OFFSET 8.27202 -0.0477905 -0.4584
                CHANNELS 3 Zrotation Xrotation Yrotation
                JOINT lPinky2
                {
                  OFFSET 1.82734 -0.647385 -0.700984
                  CHANNELS 3 Zrotation Xrotation Yrotation
                  End Site
                  {
                    OFFSET 1.69225 -0.51767 -0.607171
                  }
                }
              }
            }
          }
        }
      }
    }
  }
  JOINT rButtock
  {
    OFFSET -8.77824 4.35084 1.2192
    CHANNELS 3 Zrotation Xrotation Yrotation
    JOINT rThigh
    {
      OFFSET 0 -1.70687 -2.19456
      CHANNELS 3 Zrotation Xrotation Yrotation
      JOINT rShin
      {
        OFFSET 0 -36.8199 0.73152
        CHANNELS 3 Zrotation Xrotation Yrotation
        JOINT rFoot
        {
          OFFSET 0.73152 -45.1104 -5.12064
          CHANNELS 3 Zrotation Xrotation Yrotation
          End Site
          {
            OFFSET -1.1221 -3.69964 12.103
          }
        }
      }
    }
  }
  JOINT lButtock
  {
    OFFSET 8.77824 4.35084 1.2192
    CHANNELS 3 Zrotation Xrotation Yrotation
    JOINT lThigh
    {
      OFFSET 0 -1.70687 -2.19456
      CHANNELS 3 Zrotation Xrotation Yrotation
      JOINT lShin
      {
        OFFSET 0 -36.8199 0.73152
        CHANNELS 3 Zrotation Xrotation Yrotation
        JOINT lFoot
        {
          OFFSET -0.73152 -45.1104 -5.12064
          CHANNELS 3 Zrotation Xrotation Yrotation
          End Site
          {
            OFFSET 1.1221 -3.69964 12.103
          }
        }
      }
    }
  }
}
MOTION
Frames:	5
Frame Time:	0.00833333
15.2048 84.9248 232.103 0.0 0.0 0.0 -0.112401 -0.00252033 -0.00326495 -0.0310776 -0.00419852 -0.00538464 1.81837e-15 7.95139e-16 -1.2424e-17 5.44484e-15 9.54166e-15 -3.57191e-17 -0.0 0.0 0.0 -0.0 0.0 0.0 9.42931e-16 0.0 9.93923e-17 2.10405e-14 4.72114e-16 9.93923e-16 3.28442e-13 -9.78021e-14 -3.81667e-14 3.74886e-12 9.70069e-14 6.36111e-15 8.84214e-12 -1.24475e-14 -5.08889e-14 1.52476e-11 -2.54444e-14 -9.14409e-14 8.84234e-12 -1.39149e-14 -6.04305e-14 7.73091 5.47488 0.417314 8.8408e-12 -1.2921e-14 -5.40694e-14 2.90554 0.965183 0.102902 8.84722e-12 -1.28216e-14 -5.32743e-14 10.2786 0.731801 0.0259123 8.83598e-12 -9.1441e-15 -4.45278e-14 2.22167 -0.733487 -0.20892 8.4619e-16 -3.88251e-19 -9.93923e-17 1.7134e-14 2.67117e-16 -9.93923e-16 3.2551e-13 9.91935e-14 3.18055e-15 3.74792e-12 -9.71809e-14 -1.90833e-14 8.8389e-12 -1.76593e-15 -5.08889e-14 1.52842e-11 -6.36111e-15 -8.34896e-14 8.83558e-12 -2.78299e-15 -3.81667e-14 -7.73091 5.47488 -0.417314 8.83871e-12 -1.88845e-15 -5.08889e-14 -2.90554 0.965183 -0.102902 8.83785e-12 -1.98785e-15 -5.00937e-14 -10.2786 0.731801 -0.0259123 8.85029e-12 2.38542e-15 -5.725e-14 -2.22167 -0.733487 0.20892 -2.03217e-16 0.0 -3.88251e-19 0.354934 -2.94056 -0.0354302 -0.00588097 -0.224752 -0.0517711 -0.439785 3.16568 0.113075 2.03217e-16 0.0 3.88251e-19 -0.527768 -3.42453 0.0465081 0.0044989 0.65185 0.0390528 0.443088 2.77306 -0.105715
14.3586 81.9879 226.52 -2.2443 17.4486 28.4067 0.709653 -9.45232 0.993877 -0.777999 -0.979107 0.241782 4.47322 2.83954 4.10749 -1.1486 0.232352 7.75968 -0.0 0.0 0.0 -0.0 0.0 0.0 7.20174e-14 4.04776e-14 1.7037e-13 21.9001 6.47967 -7.41698 -6.07082 -3.2645 8.86846 0.00199418 0.993113 0.139498 -5.40594e-10 4.88456e-10 1.07294e-11 -9.35204e-10 8.43554e-10 2.06418e-11 -5.40593e-10 4.88456e-10 1.072e-11 7.73091 5.47488 0.417314 -5.40594e-10 4.88455e-10 1.0729e-11 2.90554 0.965183 0.102902 -5.40587e-10 4.88457e-10 1.07267e-11 10.2786 0.731801 0.0259123 -5.40597e-10 4.8846e-10 1.07339e-11 2.22167 -0.733487 -0.20892 7.19809e-14 4.04775e-14 1.70202e-13 -19.8538 9.01218 2.90488 6.06926 -3.26359 -8.86585 -3.89013e-05 -0.155221 0.0218147 -8.10532e-10 -1.03679e-09 3.50695e-10 -1.39975e-09 -1.79495e-09 6.08894e-10 -8.10539e-10 -1.03679e-09 3.50704e-10 -7.73091 5.47488 -0.417314 -8.10532e-10 -1.03679e-09 3.50693e-10 -2.90554 0.965183 -0.102902 -8.10534e-10 -1.03679e-09 3.50695e-10 -10.2786 0.731801 -0.0259123 -8.10522e-10 -1.03678e-09 3.50688e-10 -2.22167 -0.733487 0.20892 -2.03217e-16 0.0 -3.88251e-19 1.73986 -16.1131 1.72551 -0.0169084 7.41227 -0.000286808 -0.52788 1.18622 -1.82249 2.03217e-16 0.0 3.88251e-19 1.28675 -15.2963 0.177205 0.0119268 13.5067 -0.13191 0.387776 0.176829 -0.299827
14.191 81.9419 226.776 -2.4182 17.7795 28.4498 1.94734 -19.4293 2.13491 -1.55714 -2.00575 0.50194 8.76073 5.79499 8.48527 -2.43581 0.450575 15.9673 -0.0 0.0 0.0 -0.0 0.0 0.0 1.50481e-13 8.56763e-14 3.68817e-13 46.9023 12.979 -15.5732 -11.4169 -6.46763 18.3553 -0.00115676 2.03478 0.285958 -1.15838e-09 1.01353e-09 5.98634e-11 -2.00379e-09 1.75017e-09 1.08049e-10 -1.15838e-09 1.01353e-09 5.98541e-11 7.73091 5.47488 0.417314 -1.15838e-09 1.01353e-09 5.9866e-11 2.90554 0.965183 0.102902 -1.15837e-09 1.01353e-09 5.98604e-11 10.2786 0.731801 0.0259123 -1.15838e-09 1.01353e-09 5.98658e-11 2.22167 -0.733487 -0.20892 1.50511e-13 8.56767e-14 3.68683e-13 -41.8735 18.483 6.2178 11.397 -6.45038 -18.3248 5.38664e-05 -0.311198 0.0437364 -1.71411e-09 -2.23116e-09 7.49403e-10 -2.96022e-09 -3.86271e-09 1.30106e-09 -1.71412e-09 -2.23116e-09 7.49408e-10 -7.73091 5.47488 -0.417314 -1.7141e-09 -2.23116e-09 7.49399e-10 -2.90554 0.965183 -0.102902 -1.71411e-09 -2.23116e-09 7.49402e-10 -10.2786 0.731801 -0.0259123 -1.7141e-09 -2.23115e-09 7.49395e-10 -2.22167 -0.733487 0.20892 -2.03217e-16 0.0 -3.88251e-19 4.19356 -29.9906 3.98417 -0.0439918 15.4796 0.0562115 -0.765747 -0.892569 -3.86495 2.03217e-16 0.0 3.88251e-19 3.25404 -27.798 0.328409 0.111466 27.0408 -0.342 0.30919 -2.60384 -0.509657
14.0309 81.8992 226.977 -2.5258 18.03 28.6036 3.45382 -28.3152 3.34872 -2.24658 -2.92871 0.736973 12.1977 8.34282 12.441 -3.62885 0.646226 23.2804 -0.0 0.0 0.0 -0.0 0.0 0.0 2.14166e-13 1.21433e-13 5.1091e-13 70.8088 18.1082 -23.3262 -15.2718 -8.85666 26.9081 -0.00854164 2.97927 0.418997 -1.63947e-09 1.46539e-09 3.22901e-11 -2.83611e-09 2.53071e-09 6.21083e-11 -1.63946e-09 1.46539e-09 3.22807e-11 7.73091 5.47488 0.417314 -1.63946e-09 1.46539e-09 3.22952e-11 2.90554 0.965183 0.102902 -1.63946e-09 1.4654e-09 3.22868e-11 10.2786 0.731801 0.0259123 -1.63946e-09 1.4654e-09 3.22908e-11 2.22167 -0.733487 -0.20892 2.1425e-13 1.21433e-13 5.10804e-13 -62.5689 26.7415 9.64708 15.2688 -8.85472 -26.9 0.000237897 -0.465662 0.065446 -2.44928e-09 -3.11035e-09 1.05219e-09 -4.22981e-09 -5.38482e-09 1.82685e-09 -2.44929e-09 -3.11036e-09 1.05219e-09 -7.73091 5.47488 -0.417314 -2.44927e-09 -3.11035e-09 1.05218e-09 -2.90554 0.965183 -0.102902 -2.44928e-09 -3.11035e-09 1.05219e-09 -10.2786 0.731801 -0.0259123 -2.44927e-09 -3.11035e-09 1.05218e-09 -2.22167 -0.733487 0.20892 -2.03217e-16 0.0 -3.88251e-19 7.67159 -42.2761 6.8242 -0.082407 22.6863 0.111299 -1.10482 -2.75724 -5.69872 2.03217e-16 0.0 3.88251e-19 5.12164 -39.0388 0.540651 0.311202 39.2151 -0.597448 0.224198 -5.01528 -0.69094
13.9064 81.8578 227.196 -2.5663 18.2666 28.7066 4.83655 -34.5066 4.41344 -2.72919 -3.59265 0.908404 14.3733 10.0398 15.2282 -4.47615 0.827283 28.3562 -0.0 0.0 0.0 -0.0 0.0 0.0 2.40905e-13 1.33584e-13 5.12119e-13 88.3052 21.0951 -29.0253 -17.4652 -10.1229 32.8311 -0.016646 3.68088 0.518033 -1.77881e-09 1.73424e-09 -1.87052e-10 -3.07772e-09 2.99608e-09 -3.17204e-10 -1.77881e-09 1.73424e-09 -1.87061e-10 7.73091 5.47488 0.417314 -1.7788e-09 1.73424e-09 -1.87045e-10 2.90554 0.965183 0.102902 -1.7788e-09 1.73424e-09 -1.87055e-10 10.2786 0.731801 0.0259123 -1.7788e-09 1.73424e-09 -1.87052e-10 2.22167 -0.733487 -0.20892 2.41015e-13 1.33584e-13 5.1202e-13 -77.7351 32.2468 12.4769 17.5318 -10.1921 -32.9783 0.000465927 -0.616343 0.0866247 -2.76344e-09 -3.20161e-09 1.11516e-09 -4.77219e-09 -5.54282e-09 1.93668e-09 -2.76345e-09 -3.20161e-09 1.11516e-09 -7.73091 5.47488 -0.417314 -2.76343e-09 -3.20161e-09 1.11516e-09 -2.90554 0.965183 -0.102902 -2.76344e-09 -3.20161e-09 1.11516e-09 -10.2786 0.731801 -0.0259123 -2.76343e-09 -3.2016e-09 1.11515e-09 -2.22167 -0.733487 0.20892 -2.03217e-16 0.0 -3.88251e-19 11.3314 -50.7451 9.73406 -0.117802 27.7411 0.154059 -1.41888 -4.10373 -7.00084 2.03217e-16 0.0 3.88251e-19 6.62797 -47.1277 0.843614 0.557013 47.9915 -0.860642 0.163468 -6.50406 -0.797232
